# xmcd
#
# Track frame offsets:
#	150
#	19633
#	38252
#	56529
#	71295
#	85270
#	100168
#	116327
#	127994
#	142245
#	152779
#	164567
#
# Disc length: 2512 seconds
#
# Revision: 1
# Processed by: cddbd v1.5.1PL0 Copyright (c) Steve Scherf et al.
# Submitted via: CDmax 2.0
#
DISCID=9309ce0c
DTITLE=Kelly Pardekooper - Haymaker heart
DYEAR=2004
DGENRE=Americana
TTITLE0=Not in Iowa
TTITLE1=Tell me (you're the one)
TTITLE2=Draw the line
TTITLE3=Just shoot me
TTITLE4=Your caboose
TTITLE5=Too late
TTITLE6=Goo
TTITLE7=Wild love
TTITLE8=All over now
TTITLE9=Run again
TTITLE10=Folk this
TTITLE11=Take me 2 my home
EXTD=
EXTT0=
EXTT1=
EXTT2=
EXTT3=
EXTT4=
EXTT5=
EXTT6=
EXTT7=
EXTT8=
EXTT9=
EXTT10=
EXTT11=
PLAYORDER=
